<?xml version="1.0" encoding="UTF-8"?><svg id="Layer_2" xmlns="http://www.w3.org/2000/svg" viewBox="0 0 720 470.74"><defs><style>.cls-1{fill:#fff;}</style></defs><g id="Layer_1-2"><g><polygon class="cls-1" points="27.2 113.36 359.02 28.12 692.8 116.99 692.8 336.43 667.41 336.43 667.41 416.23 360.91 443.43 52.59 416.23 52.59 336.43 27.2 336.43 27.2 113.36"/><path class="cls-1" d="M359.02,28.12l333.78,88.87v219.45h-25.39v79.8l-306.5,27.2-308.31-27.2v-79.8H27.2V113.36L359.02,28.12m.12-28.12l-6.89,1.77L20.44,87.01,0,92.26V363.64H25.39v77.5l24.81,2.19,308.31,27.2,2.4,.21,2.4-.21,306.5-27.2,24.8-2.2v-77.49h25.39V96.08l-20.2-5.38L366.02,1.83l-6.88-1.83h0Z"/><path d="M701.86,345.5H18.14V106.33L359.06,18.75l342.81,91.27v235.48ZM36.27,327.36H683.73V123.95L358.98,37.49,36.27,120.39v206.97Z"/><g><path d="M78.2,310.66c-6.74-8.58-13.55-17.09-20.46-25.55v-125.97c6.95-10.17,13.79-20.42,20.52-30.74l63.38-16.04c6.96,7.93,13.79,16,20.48,24.17l-.05,37.79c-9.47,1.61-18.94,3.21-28.41,4.82l.02-20.19c-1.7-2.02-2.55-3.03-4.26-5.02-12.99,2.64-25.99,5.28-38.98,7.92-1.71,2.57-2.56,3.85-4.27,6.39l-.04,100.56c1.7,2.11,2.55,3.18,4.25,5.31,12.97-.65,25.94-1.3,38.91-1.95,1.7-2.43,2.56-3.65,4.26-6.1l.02-20.19c9.46-.79,18.92-1.58,28.39-2.37-.02,12.6-.04,25.19-.05,37.79-6.72,9.87-13.55,19.65-20.5,29.36h-63.2Z"/><path d="M203.58,310.66c-6.69-10.12-13.49-20.17-20.41-30.14,.08-49.53,.17-99.07,.25-148.6,6.96-11.71,13.82-23.49,20.57-35.33,21.13-5.35,42.25-10.69,63.38-16.04,6.93,9.5,13.74,19.09,20.43,28.76-.15,55.8-.3,111.6-.45,167.4-6.74,11.38-13.59,22.7-20.55,33.95h-63.21Zm55.74-176.29c-1.7-2.4-2.55-3.6-4.25-5.98-12.99,2.64-25.99,5.28-38.98,7.92-1.71,2.95-2.57,4.42-4.28,7.35l-.23,117.92c1.7,2.49,2.55,3.75,4.24,6.27,12.97-.65,25.95-1.3,38.92-1.95,1.71-2.81,2.56-4.22,4.27-7.05,.1-41.49,.2-82.99,.31-124.48Z"/><path d="M388.34,310.66c-.17-48.33-.34-96.67-.52-145-6.23,22.24-12.37,44.5-18.41,66.79-4.06-.32-5.53-.37-9.58-.05-6.05-22.3-12.2-44.57-18.44-66.82-.15,48.36-.3,96.72-.46,145.08h-28.36c.24-80.57,.47-161.14,.71-241.72,9.48-2.4,18.96-4.8,28.44-7.2,7.98,27.79,16.4,55.55,23.03,83.7,6.03-28.18,14.77-55.87,22.71-83.56l28.45,7.16c.27,80.54,.53,161.08,.8,241.61h-28.36Z"/><path d="M518.8,310.66c-.09-41.94-.19-83.88-.28-125.81-6.31,19.21-12.45,38.47-18.52,57.76-4.06-.32-6.08-.47-10.14-.79-6.37-21.29-12.64-42.6-18.83-63.94,.12,44.26,.25,88.52,.37,132.78h-28.36c-.24-78.32-.48-156.65-.72-234.97,9.48,2.39,18.97,4.77,28.45,7.16,7.84,28.02,15.83,56,23.97,83.94,7.68-24.05,15.54-48.04,23.58-71.98,9.48,2.39,18.97,4.77,28.45,7.16,.13,69.57,.26,139.13,.39,208.7h-28.36Z"/><path d="M588.89,310.66c-6.95-9.7-13.78-19.48-20.51-29.34-.02-11.62-.04-23.24-.06-34.86l28.39,2.26,.02,17.38c1.71,2.45,2.56,3.67,4.26,6.1,12.97,.64,25.95,1.29,38.92,1.93,1.7-2.14,2.55-3.2,4.25-5.31,0-10.63,0-15.95-.01-26.58-1.7-2.37-2.56-3.56-4.26-5.96-17.04-1.72-34.08-3.45-51.11-5.17-6.96-10.4-13.8-20.87-20.53-31.41-.03-21.01-.07-42.02-.1-63.03,6.68-8.17,13.52-16.24,20.48-24.17,21.13,5.32,42.27,10.63,63.4,15.95,6.73,10.31,13.57,20.55,20.52,30.71v30.35c-9.47-1.63-18.95-3.26-28.42-4.9,0-6.53,0-9.79,0-16.32-1.71-2.54-2.56-3.82-4.27-6.39-13-2.63-25.99-5.25-38.99-7.88-1.7,2-2.55,3-4.26,5.02,.01,9.44,.02,18.87,.03,28.31,1.71,2.62,2.56,3.93,4.27,6.53,17.05,2.57,34.1,5.14,51.14,7.71,6.72,9.63,13.55,19.18,20.5,28.64v54.89c-6.91,8.46-13.71,16.96-20.46,25.55h-63.2Z"/></g><g><polygon points="667.41 347.31 667.41 416.86 360.91 443.43 52.59 415.73 52.59 347.31 667.41 347.31"/><path d="M360.89,452.54l-.8-.07-316.57-28.45v-85.77H676.47v86.93l-315.58,27.36ZM61.66,407.44l299.26,26.89,297.42-25.79v-52.16H61.66v51.06Z"/></g><g><path class="cls-1" d="M142.41,413.33c-14.52-9.98-29.19-19.67-44.1-29.08,0,10.17,0,15.25,0,25.42-5.8-.48-8.7-.72-14.51-1.2v-57.33h14.51c0,10.17,0,15.25,0,25.42,14.93-8.1,29.57-16.64,44.1-25.42h14.51v8.87c-3.31-.04-4.96-.06-8.27-.1-12.08,7.22-24.25,14.24-36.56,21.06,12.32,7.85,24.48,15.87,36.56,24.09,3.31,.24,4.96,.35,8.27,.59v8.87c-5.8-.48-8.71-.72-14.51-1.2Z"/><path class="cls-1" d="M167.8,415.44c0-3.6,0-5.4,0-9,6.96,.5,10.44,.75,17.41,1.24,0-15.78,0-31.56,0-47.33-6.96-.08-10.45-.12-17.41-.2,0-3.6,0-5.4,0-9h49.33v9.57c-6.97-.08-10.45-.12-17.41-.2v48.2c6.96,.5,10.44,.75,17.4,1.24v9.57c-16.44-1.36-32.88-2.73-49.33-4.09Z"/><path class="cls-1" d="M252.23,422.45c0-20.44,0-40.88,.01-61.32-9.77-.11-19.54-.23-29.31-.34,0-3.86,0-5.79,0-9.64h73.12c0,4.2,0,6.29,0,10.49l-29.31-.34c0,20.79,0,41.57-.01,62.36-5.8-.48-8.7-.72-14.51-1.2Z"/><path class="cls-1" d="M319.39,428.02c-5.86-4.92-8.79-7.35-14.65-12.13,0-17.94,0-35.89,.01-53.83,5.86-4.3,8.79-6.48,14.66-10.92h43.82c5.86,4.65,8.79,6.94,14.65,11.45v11.34c-5.81,.13-8.71,.47-14.51,.33v-6.79c-2.55-2.07-3.83-3.09-6.38-5.14l-31.34-.36c-2.55,1.92-3.83,2.87-6.38,4.76v45.68c2.54,2.1,3.81,3.16,6.37,5.29,10.44,.75,20.89,1.49,31.33,2.24,2.55-1.83,3.83-2.75,6.38-4.61,0-2.71,0-4.07,0-6.79,5.8,.34,8.71-.48,14.51-.81v11.34c-5.87,4.98-8.8,8.42-14.66,12.58-14.6-1.21-29.2-2.42-43.81-3.64Z"/><path class="cls-1" d="M452.43,424.55c0-10.52,0-21.05,.01-31.57-14.7,.67-29.4,1.34-44.11,2.01v33.09c-5.82,.46-8.72,.7-14.52,1.16,.01-26.04,.02-52.07,.03-78.11h14.51c0,11.03,0,22.06-.01,33.09l44.11-1.52c0-10.52,0-21.05,.01-31.57h14.51l-.03,72.25c-5.8,.46-8.71,.7-14.51,1.16Z"/><path class="cls-1" d="M485.81,421.88c0-23.58,.02-47.16,.02-70.74h67.32c0,3.66,0,5.49,0,9.15l-52.81,.59v20.18c12.76-.44,25.53-.88,38.3-1.32,0,3.72,0,5.59,0,9.31-12.77,.58-25.54,1.17-38.3,1.75,0,8.07,0,12.11,0,20.18l52.82-3.64c0,3.66,0,5.49,0,9.15-22.44,1.8-44.89,3.59-67.33,5.39Z"/><path class="cls-1" d="M626.99,410.57c0-8.73,0-13.09,0-21.82-14.94-7.95-29.57-16.44-44.1-25.11,0,16.82,0,33.64,0,50.46-5.8,.46-8.71,.7-14.51,1.16v-64.13h14.52c14.53,8.9,29.16,17.62,44.1,25.81,0-10.33,0-15.49,0-25.81h14.51v58.27c-5.8,.46-8.71,.7-14.51,1.16Z"/></g></g></g></svg>